<svg width="229" height="46" viewBox="0 0 229 46" fill="none" xmlns="http://www.w3.org/2000/svg">
<path d="M97.0762 30V18.4277H101.305V15.9082H89.8984V18.4277H94.127V30H97.0762ZM112.34 19.2285H109.498V25.4395C109.498 26.875 108.736 27.7637 107.32 27.7637C106.012 27.7637 105.338 27.002 105.338 25.5176V19.2285H102.496V26.25C102.496 28.75 103.941 30.2344 106.266 30.2344C107.896 30.2344 108.902 29.5215 109.41 28.2715H109.586V30H112.34V19.2285ZM115.191 30H118.033V23.7891C118.033 22.373 118.844 21.4453 120.162 21.4453C121.51 21.4453 122.145 22.2266 122.145 23.7109V30H124.986V23.0371C124.986 20.459 123.697 18.9941 121.305 18.9941C119.713 18.9941 118.619 19.7461 118.121 20.957H117.945V19.2285H115.191V30ZM132.408 21.1719C133.736 21.1719 134.596 22.0605 134.654 23.4863H130.064C130.162 22.0898 131.09 21.1719 132.408 21.1719ZM134.713 26.9336C134.41 27.6465 133.639 28.0469 132.516 28.0469C131.031 28.0469 130.094 27.0508 130.055 25.4492V25.3027H137.447V24.4336C137.447 21.0156 135.572 18.9941 132.398 18.9941C129.195 18.9941 127.223 21.1621 127.223 24.668C127.223 28.1641 129.156 30.2344 132.438 30.2344C135.074 30.2344 136.939 28.9551 137.359 26.9336H134.713ZM154.986 30V15.9082H151.52L147.613 25.4199H147.438L143.541 15.9082H140.064V30H142.799V20.5762H142.955L146.549 29.2383H148.512L152.096 20.5762H152.252V30H154.986ZM159.459 33.916C162.145 33.916 163.463 32.9395 164.381 30.166L168.092 19.2285H165.084L162.818 27.3926H162.643L160.377 19.2285H157.242L161.021 30.0684L160.924 30.459C160.689 31.2793 160.084 31.6211 159.02 31.6211C158.902 31.6211 158.473 31.6211 158.375 31.6016V33.8867C158.492 33.9062 159.352 33.916 159.459 33.916ZM185.279 30V15.9082H181.812L177.906 25.4199H177.73L173.834 15.9082H170.357V30H173.092V20.5762H173.248L176.842 29.2383H178.805L182.389 20.5762H182.545V30H185.279ZM198.16 19.2285H195.318V25.4395C195.318 26.875 194.557 27.7637 193.141 27.7637C191.832 27.7637 191.158 27.002 191.158 25.5176V19.2285H188.316V26.25C188.316 28.75 189.762 30.2344 192.086 30.2344C193.717 30.2344 194.723 29.5215 195.23 28.2715H195.406V30H198.16V19.2285ZM200.768 22.3926C200.768 24.0527 201.783 25.0488 203.873 25.5078L205.826 25.9473C206.773 26.1523 207.184 26.4746 207.184 27.002C207.184 27.6953 206.422 28.1543 205.318 28.1543C204.186 28.1543 203.492 27.7344 203.277 27.002H200.504C200.699 29.0723 202.418 30.2344 205.26 30.2344C208.082 30.2344 210.006 28.8281 210.006 26.6797C210.006 25.0684 209.068 24.1895 206.979 23.7305L204.957 23.291C203.961 23.0664 203.502 22.7441 203.502 22.2168C203.502 21.5332 204.254 21.0742 205.27 21.0742C206.324 21.0742 206.979 21.5039 207.125 22.1973H209.752C209.596 20.1367 207.984 18.9941 205.25 18.9941C202.564 18.9941 200.768 20.3516 200.768 22.3926ZM212.359 30H215.201V19.2285H212.359V30ZM213.785 17.6172C214.674 17.6172 215.396 16.8945 215.396 15.9863C215.396 15.0781 214.674 14.3652 213.785 14.3652C212.906 14.3652 212.174 15.0781 212.174 15.9863C212.174 16.8945 212.906 17.6172 213.785 17.6172ZM227.613 23.0273C227.379 20.5762 225.67 18.9941 222.818 18.9941C219.449 18.9941 217.555 21.0156 217.555 24.5898C217.555 28.2031 219.459 30.2344 222.818 30.2344C225.621 30.2344 227.379 28.6816 227.613 26.2695H224.957C224.742 27.334 223.98 27.9004 222.818 27.9004C221.295 27.9004 220.426 26.7383 220.426 24.5898C220.426 22.4707 221.285 21.3281 222.818 21.3281C224.029 21.3281 224.762 22.002 224.957 23.0273H227.613Z" fill="#252E38"/>
<path fill-rule="evenodd" clip-rule="evenodd" d="M59.957 23C62.9946 23 65.457 20.5376 65.457 17.5C65.457 14.4624 62.9946 12 59.957 12C56.9195 12 54.457 14.4624 54.457 17.5C54.457 17.8398 54.4879 18.1725 54.5468 18.4952C53.6013 18.7678 52.6389 19.0386 51.7046 19.2824C50.2787 19.6544 48.9492 19.9549 47.8682 20.103C47.3274 20.1771 46.8745 20.2093 46.5174 20.1996C46.1412 20.1894 45.9615 20.1343 45.9042 20.1056C45.6078 19.9574 45.233 19.559 44.7775 18.8482C44.4802 18.3844 44.2092 17.8908 43.9269 17.3766L43.9269 17.3765L43.9269 17.3765C43.7849 17.1178 43.64 16.854 43.4875 16.5862C43.0797 15.8697 42.5747 15.0425 41.9556 14.566C41.6192 14.3071 41.163 14.0832 40.6122 14.1183C40.0618 14.1535 39.6079 14.435 39.2499 14.7929C38.8348 15.208 38.6552 15.7909 38.5597 16.2797C38.4575 16.8026 38.4174 17.4109 38.4073 18.0417C38.3914 19.0335 38.4501 20.1994 38.508 21.3508L38.508 21.351L38.508 21.3512C38.5234 21.6577 38.5388 21.9632 38.5526 22.2641C38.6206 23.7349 38.654 25.1028 38.5306 26.1525C38.4688 26.6781 38.3741 27.0595 38.2617 27.3106C38.2075 27.4317 38.1587 27.5006 38.1262 27.5366C38.1106 27.5539 38.0997 27.5626 38.0942 27.5665C38.0919 27.5682 38.0901 27.5693 38.0887 27.5701C38.0871 27.571 38.0861 27.5714 38.0856 27.5716L38.0821 27.5731C38.0416 27.5904 37.8568 27.6695 37.3528 27.1052C36.8565 26.5496 36.3497 25.6818 35.7849 24.6602C35.7181 24.5394 35.6505 24.4164 35.5822 24.2921L35.5819 24.2916C35.1013 23.4175 34.5835 22.4758 34.0463 21.7334C33.7365 21.3053 33.3847 20.8919 32.9848 20.5784C32.5825 20.263 32.0677 20.0001 31.457 20.0001C30.9107 20.0001 30.44 20.1773 30.0656 20.5307C29.7421 20.836 29.5466 21.2259 29.4122 21.5106C29.366 21.6084 29.3219 21.7049 29.2782 21.8004L29.2781 21.8006C29.0413 22.3188 28.8173 22.809 28.3449 23.3243C27.5575 24.1832 25.9467 25.2116 22.1578 25.7061C21.414 23.5493 19.3665 22 16.957 22C13.9195 22 11.457 24.4624 11.457 27.5C11.457 30.5376 13.9195 33 16.957 33C19.933 33 22.3569 30.6365 22.454 27.6842C26.5031 27.1501 28.6082 25.9968 29.8192 24.6758C30.5228 23.9082 30.8809 23.1144 31.1166 22.592C31.1541 22.5089 31.1885 22.4327 31.2207 22.3646C31.3306 22.1318 31.3921 22.0388 31.4234 22.0013C31.4319 22.0006 31.443 22.0001 31.457 22.0001C31.4714 22.0001 31.562 22.0044 31.7509 22.1524C31.9423 22.3025 32.1676 22.5489 32.4261 22.906C32.8847 23.5397 33.3359 24.3593 33.8265 25.2504C33.895 25.3749 33.9644 25.5009 34.0346 25.6279C34.579 26.6126 35.1893 27.6853 35.8611 28.4375C36.5083 29.1621 37.5474 29.941 38.8284 29.4286C39.4688 29.1724 39.8548 28.6467 40.0871 28.1278C40.3182 27.6116 40.4444 27.0026 40.5169 26.3861C40.662 25.1515 40.6178 23.6284 40.5505 22.1718C40.5355 21.8469 40.5194 21.5252 40.5035 21.2085C40.4463 20.0673 40.3923 18.9924 40.407 18.0737C40.4164 17.4897 40.4535 17.0168 40.5226 16.6633C40.5835 16.3516 40.6509 16.2333 40.6645 16.2093C40.6663 16.2063 40.6672 16.2047 40.667 16.2046C40.6669 16.2044 40.6659 16.2053 40.6641 16.2071C40.69 16.1812 40.712 16.1615 40.73 16.1466L40.7358 16.151C40.9861 16.3436 41.3118 16.8068 41.7494 17.5756C41.8692 17.7859 41.9967 18.018 42.13 18.2605C42.4306 18.8074 42.76 19.4069 43.0936 19.9274C43.5664 20.6652 44.1882 21.4838 45.0098 21.8945C45.4526 22.1159 45.976 22.1857 46.4631 22.1989C46.9693 22.2126 47.5398 22.1667 48.1396 22.0845C49.3398 21.9201 50.7604 21.5956 52.2095 21.2176C53.2195 20.9541 54.2584 20.6605 55.2642 20.3698C56.231 21.9475 57.9711 23 59.957 23ZM40.6669 16.1063C40.6669 16.1063 40.6678 16.1066 40.6695 16.1074L40.6669 16.1063ZM40.7927 16.1036C40.7927 16.1037 40.7913 16.1044 40.7886 16.1054C40.7913 16.104 40.7927 16.1035 40.7927 16.1036Z" fill="url(#paint0_linear_1867:94466)"/>
<path fill-rule="evenodd" clip-rule="evenodd" d="M46.0093 8.40284C45.3317 9.51644 45.8903 10.9187 47.0849 11.4405C48.2795 11.9622 49.6542 11.3998 50.3865 10.3214C51.4371 8.77406 52.8203 7.46796 54.4459 6.50499C56.7525 5.13866 59.4303 4.53233 62.1005 4.77179C64.7706 5.01126 67.2979 6.08439 69.3245 7.83932C71.3511 9.59426 72.7745 11.9421 73.3933 14.5506C74.012 17.1591 73.7947 19.8961 72.7722 22.3743C71.7497 24.8525 69.9736 26.9464 67.6955 28.3596C65.4174 29.7728 62.7525 30.4337 60.078 30.2489C58.1931 30.1187 56.3706 29.5729 54.737 28.6623C53.5983 28.0277 52.1175 28.1426 51.2845 29.1453C50.4515 30.148 50.5822 31.6518 51.6878 32.3424C54.1108 33.8559 56.8786 34.7598 59.7526 34.9584C63.415 35.2115 67.0643 34.3063 70.184 32.3711C73.3037 30.4359 75.7358 27.5685 77.136 24.1749C78.5363 20.7812 78.8338 17.0331 77.9865 13.4611C77.1392 9.889 75.19 6.67386 72.4147 4.27065C69.6394 1.86744 66.1786 0.397891 62.5221 0.0699685C58.8656 -0.257954 55.1986 0.572361 52.04 2.44341C49.5614 3.91161 47.4945 5.9623 46.0093 8.40284ZM26.9795 12.9631C28.0753 13.6692 28.1848 15.1747 27.3377 16.1655C26.4907 17.1564 25.0084 17.2504 23.8788 16.5998C22.2581 15.6662 20.4436 15.0949 18.5606 14.938C15.889 14.7155 13.2151 15.3389 10.9173 16.7198C8.61942 18.1008 6.81406 20.1694 5.75669 22.6329C4.69932 25.0965 4.44347 27.8301 5.02537 30.4471C5.60727 33.064 6.99744 35.4317 8.99914 37.2151C11.0008 38.9984 13.5127 40.107 16.1792 40.3841C18.8457 40.6612 21.5318 40.0927 23.8574 38.759C25.4965 37.8191 26.8979 36.5326 27.9703 35.0002C28.7177 33.9322 30.1002 33.3893 31.2873 33.9278C32.4745 34.4663 33.0132 35.8764 32.3199 36.9803C30.8005 39.3997 28.7049 41.421 26.2058 42.8541C23.0212 44.6804 19.3428 45.459 15.6913 45.0795C12.0397 44.7001 8.60003 43.1819 5.8589 40.7398C3.11778 38.2977 1.21408 35.0554 0.417225 31.4717C-0.379628 27.8881 -0.0292797 24.1446 1.41869 20.771C2.86666 17.3974 5.33891 14.5647 8.48557 12.6736C11.6322 10.7825 15.2939 9.92894 18.9524 10.2336C21.8233 10.4727 24.5781 11.4155 26.9795 12.9631Z" fill="url(#paint1_linear_1867:94466)"/>
<defs>
<linearGradient id="paint0_linear_1867:94466" x1="23.308" y1="8.56604" x2="42.2788" y2="41.248" gradientUnits="userSpaceOnUse">
<stop stop-color="#F5A239"/>
<stop offset="0.45429" stop-color="#F64752"/>
<stop offset="1" stop-color="#9D00BB"/>
</linearGradient>
<linearGradient id="paint1_linear_1867:94466" x1="-9.32462e-07" y1="33.6917" x2="45.594" y2="-25.3706" gradientUnits="userSpaceOnUse">
<stop stop-color="#202122"/>
<stop offset="1" stop-color="#26303C"/>
</linearGradient>
</defs>
</svg>
