<?xml version="1.0" encoding="UTF-8"?><svg id="_图层_1" xmlns="http://www.w3.org/2000/svg" viewBox="0 0 100 100"><defs><style>.cls-1{fill:#0c0c0c;}</style></defs><path class="cls-1" d="m50,6C25.7,6,6,25.7,6,50s19.7,44,44,44,44-19.7,44-44S74.3,6,50,6ZM12.58,49.97c0-20.67,16.76-37.42,37.42-37.42,5.64,0,10.98,1.25,15.77,3.48,2.56,5.4,7.45,16.49,9.01,25.51.82,4.92.47,9.02-.27,12.2.18-1.22.28-2.46.28-3.73,0-13.69-11.1-24.79-24.79-24.79-7.54,0-14.29,3.37-18.84,8.68-3.99,4.15-8.41,11.65-8.74,22.61-.2,6.72.63,14.65,1.39,20.19-6.93-6.79-11.23-16.26-11.23-26.72Zm25.85.03c0,4.26,2.31,7.97,5.74,9.99,2.02,1.32,5.25,3.12,7.5,3.3,5.63.46,10.8-.89,14.64-2.6-3.49,5.26-9.46,8.73-16.24,8.73-8.42,0-15.6-5.35-18.31-12.84-.33-3.99.08-10.22,4.94-14.11,5.48-4.38,9.91-4.33,11.96-3.96-5.76.67-10.23,5.56-10.23,11.49Zm24.46,7.9c-4.96,3.82-9.39,3.91-11.63,3.6,5.8-.63,10.32-5.54,10.32-11.51,0-3.89-1.92-7.32-4.86-9.42.02,0,.05.01.04.01-1.6-1.17-5.46-3.39-7.68-3.74-5.56-.88-11.35.69-15.46,2.64,3.46-5.43,9.52-9.03,16.43-9.03,8.44,0,15.62,5.36,18.32,12.87.2,3.9-.33,10.59-5.5,14.57Zm-12.88,29.49c-5.52,0-10.76-1.2-15.48-3.34-2.68-5.42-7.74-16.47-9.29-25.45-.8-4.8-.48-8.82.21-11.96-.15,1.1-.23,2.22-.23,3.35,0,13.69,11.1,24.79,24.79,24.79,8.18,0,15.43-3.96,19.95-10.07,3.64-4.35,7.35-11.35,7.64-21.09.21-6.8-.6-14.79-1.32-20.32,6.89,6.79,11.16,16.22,11.16,26.65,0,20.67-16.76,37.42-37.42,37.42Z"/></svg>